<svg preserveAspectRatio="none" width="100%" height="100%" overflow="visible" style="display: block;" viewBox="0 0 23.0769 26" fill="none" xmlns="http://www.w3.org/2000/svg">
<path id="Vector" d="M11.5385 0C10.7308 0 10.1469 0.294 9.91615 0.594C9.80077 0.694 9.70731 0.9 9.59192 1H8.07692C6.80769 1 5.76923 1.9 5.76923 3H3.46154C1.5 3 0 4.3 0 6V23C0 24.7 1.5 26 3.46154 26H19.6154C21.5769 26 23.0769 24.7 23.0769 23V6C23.0769 4.3 21.5769 3 19.6154 3H17.3077C17.3077 1.9 16.2692 1 15 1H13.485C13.3696 0.9 13.2773 0.694 13.1619 0.594C12.93 0.294 12.3462 0 11.5385 0ZM8.07692 3H15V5H8.07692V3ZM3.46154 6H6.13038C6.47654 6.6 7.26923 7 8.07692 7H15C15.8077 7 16.6004 6.6 16.9477 6H19.6154V23H3.46154V6ZM15.6496 10.688C15.4327 10.688 15.2227 10.756 15.1073 10.906L10.0246 15.594L8.07692 14C7.73077 13.7 7.15385 13.7 6.92308 14L6.12923 14.688C5.78308 14.988 5.78308 15.488 6.12923 15.688L9.33923 18.312C9.80077 18.712 10.5 18.587 10.9615 18.187L17.1992 12.407C17.43 12.207 17.4381 11.8 17.0919 11.5L16.2612 10.906C16.1809 10.8364 16.0855 10.7812 15.9806 10.7436C15.8756 10.706 15.7632 10.6878 15.6496 10.688Z" fill="var(--fill-0, #06B6D4)"/>
</svg>
