<svg preserveAspectRatio="none" width="100%" height="100%" overflow="visible" style="display: block;" viewBox="0 0 44 44" fill="none" xmlns="http://www.w3.org/2000/svg">
<g id="Group 662">
<circle id="Ellipse 12" cx="22" cy="22" r="22" fill="var(--fill-0, #A78BFA)"/>
<path id="Vector" fill-rule="evenodd" clip-rule="evenodd" d="M14.1726 13.4643C13.9622 13.4643 13.7605 13.5508 13.6117 13.7049C13.463 13.8589 13.3794 14.0679 13.3794 14.2857V30.7143C13.3794 30.9321 13.463 31.1411 13.6117 31.2951C13.7605 31.4492 13.9622 31.5357 14.1726 31.5357H22.5005C22.8161 31.5357 23.1187 31.6655 23.3418 31.8966C23.5649 32.1277 23.6902 32.4411 23.6902 32.7679C23.6902 33.0946 23.5649 33.408 23.3418 33.6391C23.1187 33.8702 22.8161 34 22.5005 34H14.1726C13.3311 34 12.5242 33.6538 11.9292 33.0376C11.3343 32.4214 11 31.5857 11 30.7143V14.2857C11 13.4143 11.3343 12.5786 11.9292 11.9624C12.5242 11.3462 13.3311 11 14.1726 11H30.0353C30.8768 11 31.6837 11.3462 32.2787 11.9624C32.8737 12.5786 33.2079 13.4143 33.2079 14.2857V24.5536C33.2079 24.8804 33.0826 25.1938 32.8594 25.4248C32.6363 25.6559 32.3337 25.7857 32.0182 25.7857C31.7027 25.7857 31.4001 25.6559 31.1769 25.4248C30.9538 25.1938 30.8285 24.8804 30.8285 24.5536V14.2857C30.8285 14.0679 30.7449 13.8589 30.5962 13.7049C30.4474 13.5508 30.2457 13.4643 30.0353 13.4643H14.1726ZM33.6521 27.79C33.8749 28.021 34 28.3342 34 28.6607C34 28.9872 33.8749 29.3004 33.6521 29.5314L29.6864 33.6386C29.4633 33.8693 29.1609 33.9989 28.8456 33.9989C28.5304 33.9989 28.228 33.8693 28.0049 33.6386L26.4186 31.9957C26.3017 31.8829 26.208 31.7469 26.143 31.5957C26.0779 31.4446 26.043 31.2814 26.0402 31.116C26.0373 30.9506 26.0667 30.7862 26.1266 30.6328C26.1864 30.4794 26.2755 30.34 26.3884 30.223C26.5014 30.106 26.636 30.0138 26.7841 29.9518C26.9323 29.8898 27.0909 29.8594 27.2507 29.8623C27.4104 29.8652 27.568 29.9014 27.7139 29.9688C27.8598 30.0361 27.9912 30.1332 28.1001 30.2543L28.8456 31.0264L31.9706 27.79C32.1937 27.5593 32.4961 27.4297 32.8113 27.4297C33.1266 27.4297 33.429 27.5593 33.6521 27.79ZM16.9485 15.9286C16.633 15.9286 16.3304 16.0584 16.1073 16.2895C15.8842 16.5205 15.7588 16.8339 15.7588 17.1607C15.7588 17.4875 15.8842 17.8009 16.1073 18.032C16.3304 18.263 16.633 18.3929 16.9485 18.3929H27.2594C27.5749 18.3929 27.8775 18.263 28.1006 18.032C28.3237 17.8009 28.4491 17.4875 28.4491 17.1607C28.4491 16.8339 28.3237 16.5205 28.1006 16.2895C27.8775 16.0584 27.5749 15.9286 27.2594 15.9286H16.9485ZM15.7588 22.5C15.7588 22.1732 15.8842 21.8598 16.1073 21.6287C16.3304 21.3977 16.633 21.2679 16.9485 21.2679H27.2594C27.5749 21.2679 27.8775 21.3977 28.1006 21.6287C28.3237 21.8598 28.4491 22.1732 28.4491 22.5C28.4491 22.8268 28.3237 23.1402 28.1006 23.3713C27.8775 23.6023 27.5749 23.7321 27.2594 23.7321H16.9485C16.633 23.7321 16.3304 23.6023 16.1073 23.3713C15.8842 23.1402 15.7588 22.8268 15.7588 22.5ZM16.9485 26.6071C16.633 26.6071 16.3304 26.737 16.1073 26.968C15.8842 27.1991 15.7588 27.5125 15.7588 27.8393C15.7588 28.1661 15.8842 28.4795 16.1073 28.7105C16.3304 28.9416 16.633 29.0714 16.9485 29.0714H22.5005C22.8161 29.0714 23.1187 28.9416 23.3418 28.7105C23.5649 28.4795 23.6902 28.1661 23.6902 27.8393C23.6902 27.5125 23.5649 27.1991 23.3418 26.968C23.1187 26.737 22.8161 26.6071 22.5005 26.6071H16.9485Z" fill="var(--fill-0, white)"/>
</g>
</svg>
