<svg preserveAspectRatio="none" width="100%" height="100%" overflow="visible" style="display: block;" viewBox="0 0 44 44" fill="none" xmlns="http://www.w3.org/2000/svg">
<g id="Group 661">
<circle id="Ellipse 11" cx="22" cy="22" r="22" fill="var(--fill-0, #A78BFA)"/>
<path id="Vector" d="M21.988 10C15.364 10 10 15.376 10 22C10 28.624 15.364 34 21.988 34C28.624 34 34 28.624 34 22C34 15.376 28.624 10 21.988 10ZM22 31.6C16.696 31.6 12.4 27.304 12.4 22C12.4 16.696 16.696 12.4 22 12.4C27.304 12.4 31.6 16.696 31.6 22C31.6 27.304 27.304 31.6 22 31.6ZM21.736 16H21.664C21.184 16 20.8 16.384 20.8 16.864V22.528C20.8 22.948 21.016 23.344 21.388 23.56L26.368 26.548C26.776 26.788 27.304 26.668 27.544 26.26C27.6043 26.1628 27.6443 26.0545 27.6619 25.9416C27.6794 25.8286 27.674 25.7132 27.646 25.6024C27.618 25.4915 27.568 25.3874 27.4989 25.2963C27.4299 25.2052 27.3432 25.1289 27.244 25.072L22.6 22.312V16.864C22.6 16.384 22.216 16 21.736 16Z" fill="var(--fill-0, white)"/>
</g>
</svg>
