<svg preserveAspectRatio="none" width="100%" height="100%" overflow="visible" style="display: block;" viewBox="0 0 25 25" fill="none" xmlns="http://www.w3.org/2000/svg">
<path id="Vector" d="M12.5 0C10.8585 0 9.23303 0.323322 7.71646 0.951506C6.19989 1.57969 4.8219 2.50043 3.66117 3.66117C1.31696 6.00537 0 9.18479 0 12.5C0 15.8152 1.31696 18.9946 3.66117 21.3388C4.8219 22.4996 6.19989 23.4203 7.71646 24.0485C9.23303 24.6767 10.8585 25 12.5 25C15.8152 25 18.9946 23.683 21.3388 21.3388C23.683 18.9946 25 15.8152 25 12.5C25 10.8585 24.6767 9.23303 24.0485 7.71646C23.4203 6.19989 22.4996 4.8219 21.3388 3.66117C20.1781 2.50043 18.8001 1.57969 17.2835 0.951506C15.767 0.323322 14.1415 0 12.5 0ZM12.5 2.5C15.1522 2.5 17.6957 3.55357 19.5711 5.42893C21.4464 7.3043 22.5 9.84784 22.5 12.5C22.5 15.5 21.25 18.125 19.125 20C17.375 18.375 15 17.5 12.5 17.5C10 17.5 7.75 18.375 5.875 20C3.75 18.125 2.5 15.5 2.5 12.5C2.5 9.84784 3.55357 7.3043 5.42893 5.42893C7.3043 3.55357 9.84784 2.5 12.5 2.5ZM15 4.8625C14.525 4.875 14.075 5.1875 13.875 5.675L12.2625 9.7125L12.1375 10C11.25 10.1625 10.5125 10.75 10.175 11.575C9.6625 12.8625 10.2875 14.3125 11.575 14.825C12.8625 15.3375 14.3125 14.7125 14.825 13.425C15.15 12.6 15 11.65 14.4625 10.95L14.5875 10.625L16.2 6.6125L16.2125 6.575C16.4625 5.9375 16.15 5.2125 15.5125 4.95C15.35 4.8875 15.1875 4.8625 15 4.8625ZM10 5C9.66848 5 9.35054 5.1317 9.11612 5.36612C8.8817 5.60054 8.75 5.91848 8.75 6.25C8.75 6.58152 8.8817 6.89946 9.11612 7.13388C9.35054 7.3683 9.66848 7.5 10 7.5C10.3315 7.5 10.6495 7.3683 10.8839 7.13388C11.1183 6.89946 11.25 6.58152 11.25 6.25C11.25 5.91848 11.1183 5.60054 10.8839 5.36612C10.6495 5.1317 10.3315 5 10 5ZM6.25 8.75C5.91848 8.75 5.60054 8.8817 5.36612 9.11612C5.1317 9.35054 5 9.66848 5 10C5 10.3315 5.1317 10.6495 5.36612 10.8839C5.60054 11.1183 5.91848 11.25 6.25 11.25C6.58152 11.25 6.89946 11.1183 7.13388 10.8839C7.3683 10.6495 7.5 10.3315 7.5 10C7.5 9.66848 7.3683 9.35054 7.13388 9.11612C6.89946 8.8817 6.58152 8.75 6.25 8.75ZM18.75 8.75C18.4185 8.75 18.1005 8.8817 17.8661 9.11612C17.6317 9.35054 17.5 9.66848 17.5 10C17.5 10.3315 17.6317 10.6495 17.8661 10.8839C18.1005 11.1183 18.4185 11.25 18.75 11.25C19.0815 11.25 19.3995 11.1183 19.6339 10.8839C19.8683 10.6495 20 10.3315 20 10C20 9.66848 19.8683 9.35054 19.6339 9.11612C19.3995 8.8817 19.0815 8.75 18.75 8.75Z" fill="var(--fill-0, #06B6D4)"/>
</svg>
