<svg preserveAspectRatio="none" width="100%" height="100%" overflow="visible" style="display: block;" viewBox="0 0 22.5 20" fill="none" xmlns="http://www.w3.org/2000/svg">
<path id="Vector" d="M19.9 1.2625C19.65 0.525 18.95 0 18.125 0H4.375C3.55 0 2.8625 0.525 2.6 1.2625L0 8.75V18.125C0 19.1625 0.8375 20 1.875 20C2.9125 20 3.75 19.1625 3.75 18.125V17.5H18.75V18.125C18.75 19.15 19.5875 20 20.625 20C21.65 20 22.5 19.1625 22.5 18.125V8.75L19.9 1.2625ZM5.625 13.75C4.5875 13.75 3.75 12.9125 3.75 11.875C3.75 10.8375 4.5875 10 5.625 10C6.6625 10 7.5 10.8375 7.5 11.875C7.5 12.9125 6.6625 13.75 5.625 13.75ZM16.875 13.75C15.8375 13.75 15 12.9125 15 11.875C15 10.8375 15.8375 10 16.875 10C17.9125 10 18.75 10.8375 18.75 11.875C18.75 12.9125 17.9125 13.75 16.875 13.75ZM3.5125 6.25L4.8125 2.5H17.675L18.975 6.25H3.5125Z" fill="var(--fill-0, #06B6D4)"/>
</svg>
