<svg preserveAspectRatio="none" width="100%" height="100%" overflow="visible" style="display: block;" viewBox="0 0 27 27" fill="none" xmlns="http://www.w3.org/2000/svg">
<g id="fluent:person-support-24-filled">
<path id="Vector" d="M22.5002 18.277C22.5002 17.9446 22.4347 17.6155 22.3075 17.3085C22.1802 17.0014 21.9938 16.7225 21.7587 16.4875C21.5237 16.2525 21.2446 16.0662 20.9375 15.9391C20.6304 15.812 20.3013 15.7467 19.9689 15.7468H7.03142C6.69897 15.7467 6.36975 15.8121 6.06258 15.9392C5.75541 16.0664 5.4763 16.2528 5.24123 16.4879C5.00615 16.723 4.8197 17.0021 4.69255 17.3092C4.56539 17.6164 4.50002 17.9456 4.50017 18.2781V19.3131C4.50017 19.9555 4.70042 20.5832 5.07392 21.1075C6.8098 23.542 9.64705 24.748 13.4957 24.748C17.3432 24.748 20.1838 23.5431 21.9219 21.1086C22.2971 20.5846 22.4993 19.9564 22.5002 19.312V18.277ZM19.1218 7.87746C19.1219 6.69279 18.7481 5.53831 18.0534 4.57864C17.3588 3.61897 16.379 2.9031 15.2535 2.53312C14.1281 2.16313 12.9146 2.15792 11.7861 2.51821C10.6575 2.87851 9.67151 3.58592 8.96867 4.53959C8.88715 4.51377 8.80218 4.50049 8.71667 4.50021H5.90642C5.68264 4.50021 5.46803 4.58911 5.3098 4.74734C5.15157 4.90557 5.06267 5.12019 5.06267 5.34396V11.5292C5.06238 11.9357 5.14218 12.3382 5.29752 12.7138C5.45287 13.0894 5.6807 13.4308 5.96801 13.7183C6.25532 14.0058 6.59648 14.2339 6.97197 14.3895C7.34747 14.5451 7.74995 14.6252 8.15642 14.6252H8.43767V14.6207H8.44892C8.63952 14.621 8.82706 14.5728 8.99387 14.4806C9.16068 14.3883 9.30127 14.2552 9.40239 14.0936C9.5035 13.932 9.56183 13.7474 9.57186 13.557C9.58189 13.3667 9.5433 13.177 9.45972 13.0056C9.37614 12.8343 9.25033 12.6871 9.09414 12.5779C8.93795 12.4687 8.75651 12.401 8.56694 12.3813C8.37736 12.3615 8.18588 12.3904 8.01053 12.4651C7.83518 12.5398 7.68174 12.6579 7.56467 12.8083C7.32105 12.6953 7.11487 12.5149 6.97054 12.2884C6.8262 12.062 6.74973 11.7989 6.75017 11.5303V11.2502H7.59167C8.01917 11.2502 8.4163 11.113 8.73917 10.8812C9.38986 11.9128 10.3582 12.7049 11.4983 13.1383C12.6384 13.5716 13.8884 13.6226 15.06 13.2837C16.2316 12.9447 17.2614 12.2342 17.994 11.259C18.7266 10.2839 19.1224 9.09712 19.1218 7.87746ZM7.8718 7.75821C7.87015 7.8377 7.87015 7.91722 7.8718 7.99671V9.28034C7.8718 9.35493 7.84216 9.42647 7.78942 9.47921C7.73668 9.53196 7.66514 9.56159 7.59055 9.56159H6.75017V6.18884H7.87292L7.8718 7.75821Z" fill="var(--fill-0, white)"/>
</g>
</svg>
