<svg preserveAspectRatio="none" width="100%" height="100%" overflow="visible" style="display: block;" viewBox="0 0 853.571 168" fill="none" xmlns="http://www.w3.org/2000/svg">
<path id="Vector 1040" d="M1.34479 95.0198C1.34479 95.0198 26.6412 118.022 45.3288 121C91.92 128.424 89.5925 11.9762 136.33 17.5802C176.49 22.3955 189.839 80.689 224.845 120.5C250.345 149.5 285.621 172.303 326.35 161C370.885 148.641 413.126 58.5483 413.126 58.5483C413.126 58.5483 431.712 20.727 450.285 8.58725C492.21 -18.8161 525.487 46.8907 561.761 66.542C598.036 86.1934 614.031 71.5914 654.773 87.9999M654.773 87.9999C703.472 107.614 737.679 154.817 788.127 163.966C813.358 168.542 853.345 163.966 853.345 163.966M654.773 87.9999C654.773 87.9999 679.52 50.991 716.66 33.5004C758.687 13.7085 805.126 8.58783 849.168 8.58725" stroke="var(--stroke-0, white)" stroke-width="4"/>
</svg>
