<svg preserveAspectRatio="none" width="100%" height="100%" overflow="visible" style="display: block;" viewBox="0 0 44 44" fill="none" xmlns="http://www.w3.org/2000/svg">
<g id="Group 657">
<circle id="Ellipse 7" cx="22" cy="22" r="22" fill="var(--fill-0, #A78BFA)"/>
<path id="Vector" fill-rule="evenodd" clip-rule="evenodd" d="M15.4956 10.6275C17.0299 10.0129 18.7069 9.84541 20.3325 10.1443C21.9581 10.4431 23.4658 11.1962 24.6812 12.3163C25.8966 13.4364 26.7701 14.8777 27.2004 16.4735C27.6308 18.0694 27.6005 19.7544 27.1131 21.3337L32.6056 25.9812C33.1003 26.4017 33.5026 26.9201 33.787 27.5037C34.0715 28.0874 34.2319 28.7236 34.2582 29.3724C34.2845 30.0211 34.1761 30.6682 33.9398 31.273C33.7035 31.8778 33.3445 32.427 32.8854 32.8861C32.4263 33.3452 31.8771 33.7042 31.2723 33.9405C30.6676 34.1767 30.0204 34.2851 29.3717 34.2588C28.7229 34.2326 28.0867 34.0721 27.503 33.7877C26.9194 33.5033 26.401 33.101 25.9806 32.6062L21.3343 27.1137C19.7548 27.6013 18.0696 27.6317 16.4736 27.2013C14.8776 26.7709 13.4361 25.8973 12.316 24.6817C11.1958 23.4661 10.4428 21.9581 10.1441 20.3323C9.84538 18.7065 10.0132 17.0294 10.6281 15.495C11.0756 14.3775 12.4781 14.2362 13.2068 15.0287L17.2106 19.3762L19.0181 19.0162L19.3806 17.205L15.0306 13.2075C14.2381 12.4787 14.3768 11.075 15.4956 10.6275ZM18.0043 12.5475L21.4581 15.7225C21.8606 16.0925 22.0406 16.645 21.9331 17.1787L21.3456 20.1212C21.285 20.4241 21.1361 20.7021 20.9177 20.9204C20.6992 21.1386 20.4209 21.2873 20.1181 21.3475L17.1806 21.9312C16.9177 21.9835 16.6457 21.9673 16.3909 21.8841C16.1361 21.8009 15.907 21.6536 15.7256 21.4562L12.5456 18.0037C12.4161 19.0789 12.5682 20.1693 12.9868 21.168C13.4054 22.1668 14.0763 23.0397 14.9336 23.7013C15.791 24.3628 16.8055 24.7904 17.8778 24.942C18.9501 25.0936 20.0434 24.9641 21.0506 24.5662C21.356 24.445 21.6918 24.4226 22.0107 24.5022C22.3295 24.5818 22.6154 24.7594 22.8281 25.01L27.8906 30.9925C28.0869 31.2255 28.3295 31.4151 28.603 31.5494C28.8764 31.6838 29.1748 31.7598 29.4792 31.7728C29.7836 31.7857 30.0874 31.7353 30.3713 31.6248C30.6552 31.5142 30.913 31.3458 31.1285 31.1304C31.3439 30.915 31.5123 30.6571 31.6228 30.3732C31.7334 30.0893 31.7838 29.7855 31.7708 29.4811C31.7579 29.1767 31.6818 28.8784 31.5475 28.6049C31.4132 28.3314 31.2235 28.0888 30.9906 27.8925L25.0093 22.83C24.7587 22.6173 24.5812 22.3315 24.5016 22.0126C24.422 21.6937 24.4443 21.358 24.5656 21.0525C24.9638 20.0453 25.0936 18.9519 24.9422 17.8795C24.7907 16.807 24.3632 15.7923 23.7015 14.9348C23.0399 14.0773 22.1668 13.4065 21.1678 12.988C20.1689 12.5694 19.0783 12.4177 18.0031 12.5475H18.0043Z" fill="var(--fill-0, white)"/>
</g>
</svg>
