<svg preserveAspectRatio="none" width="100%" height="100%" overflow="visible" style="display: block;" viewBox="0 0 44 44" fill="none" xmlns="http://www.w3.org/2000/svg">
<g id="Group 658">
<circle id="Ellipse 8" cx="22" cy="22" r="22" fill="var(--fill-0, #A78BFA)"/>
<path id="Vector" d="M24.8235 12.9412H33.0588V27.6471H22.7647L22.1765 24.7059H13.9412V35H11V10H24.2353L24.8235 12.9412ZM24.2353 24.7059H27.1765V21.7647H30.1176V18.8235H27.1765V15.8824H24.2353V18.8235L22.7647 15.8824V12.9412H19.8235V15.8824H16.8824V12.9412H13.9412V15.8824H16.8824V18.8235H13.9412V21.7647H16.8824V18.8235H19.8235V21.7647H22.7647V18.8235L24.2353 21.7647V24.7059ZM19.8235 18.8235V15.8824H22.7647V18.8235H19.8235ZM24.2353 18.8235H27.1765V21.7647H24.2353V18.8235Z" fill="var(--fill-0, white)"/>
</g>
</svg>
