<svg preserveAspectRatio="none" width="100%" height="100%" overflow="visible" style="display: block;" viewBox="0 0 44 44" fill="none" xmlns="http://www.w3.org/2000/svg">
<g id="Group 659">
<circle id="Ellipse 9" cx="22" cy="22" r="22" fill="var(--fill-0, #A78BFA)"/>
<path id="Vector" d="M21.9208 34C21.543 34 21.2261 33.872 20.9701 33.616C20.7141 33.36 20.5866 33.0436 20.5875 32.6667V31.1333C19.5875 30.9111 18.7097 30.5222 17.9541 29.9667C17.1986 29.4111 16.5875 28.6333 16.1208 27.6333C15.9653 27.3222 15.9599 26.9942 16.1048 26.6493C16.2497 26.3044 16.5106 26.0547 16.8875 25.9C17.1986 25.7667 17.5208 25.7724 17.8541 25.9173C18.1875 26.0622 18.443 26.3009 18.6208 26.6333C18.9986 27.3 19.4764 27.8053 20.0541 28.1493C20.6319 28.4933 21.343 28.6658 22.1875 28.6667C23.0986 28.6667 23.8706 28.4609 24.5035 28.0493C25.1364 27.6378 25.4532 26.9991 25.4541 26.1333C25.4541 25.3556 25.2097 24.7391 24.7208 24.284C24.2319 23.8289 23.0986 23.312 21.3208 22.7333C19.4097 22.1333 18.0986 21.4164 17.3875 20.5827C16.6764 19.7489 16.3208 18.7324 16.3208 17.5333C16.3208 16.0889 16.7875 14.9667 17.7208 14.1667C18.6541 13.3667 19.6097 12.9111 20.5875 12.8V11.3333C20.5875 10.9556 20.7155 10.6387 20.9715 10.3827C21.2275 10.1267 21.5435 9.99912 21.9195 10C22.2973 10 22.6141 10.128 22.8701 10.384C23.1261 10.64 23.2537 10.9564 23.2528 11.3333V12.8C24.0972 12.9333 24.8306 13.2058 25.4528 13.6173C26.075 14.0289 26.5861 14.5342 26.9861 15.1333C27.1861 15.4222 27.2252 15.7444 27.1035 16.1C26.9817 16.4556 26.7315 16.7111 26.3528 16.8667C26.0417 17 25.7195 17.0058 25.3861 16.884C25.0528 16.7622 24.7417 16.5453 24.4528 16.2333C24.1639 15.9222 23.8248 15.6836 23.4355 15.5173C23.0461 15.3511 22.563 15.2676 21.9861 15.2667C21.0084 15.2667 20.2639 15.4836 19.7528 15.9173C19.2417 16.3511 18.9866 16.8898 18.9875 17.5333C18.9875 18.2667 19.3208 18.8444 19.9875 19.2667C20.6541 19.6889 21.8097 20.1333 23.4541 20.6C24.9875 21.0444 26.1488 21.7502 26.9381 22.7173C27.7275 23.6844 28.1217 24.8009 28.1208 26.0667C28.1208 27.6444 27.6541 28.8444 26.7208 29.6667C25.7875 30.4889 24.6319 31 23.2541 31.2V32.6667C23.2541 33.0444 23.1261 33.3613 22.8701 33.6173C22.6141 33.8733 22.2977 34.0009 21.9208 34Z" fill="var(--fill-0, white)"/>
</g>
</svg>
