<svg preserveAspectRatio="none" width="100%" height="100%" overflow="visible" style="display: block;" viewBox="0 0 148.296 79.5" fill="none" xmlns="http://www.w3.org/2000/svg">
<path id="Vector 98" d="M0.9 42.9L0.905696 42L0 41.9943V42.9H0.9ZM143.1 43.8L143.094 44.7L144 44.7057V43.8H143.1ZM143.1 0L137.904 9H148.296L143.1 0ZM0.9 42.9L0.894304 43.8L143.094 44.7L143.1 43.8L143.106 42.9L0.905696 42L0.9 42.9ZM143.1 43.8H144V8.1H143.1H142.2V43.8H143.1ZM0.9 79.5H1.8V61.2H0.9H0V79.5H0.9ZM0.9 61.2H1.8V42.9H0.9H0V61.2H0.9Z" fill="var(--stroke-0, white)"/>
</svg>
