<svg preserveAspectRatio="none" width="100%" height="100%" overflow="visible" style="display: block;" viewBox="0 0 44 44" fill="none" xmlns="http://www.w3.org/2000/svg">
<g id="Group 660">
<circle id="Ellipse 47" cx="22" cy="22" r="22" fill="var(--fill-0, #A78BFA)"/>
<path id="Vector" d="M22 28C22.34 28 22.6252 27.8848 22.8556 27.6544C23.086 27.424 23.2008 27.1392 23.2 26.8V22C23.2 21.66 23.0848 21.3748 22.8544 21.1444C22.624 20.914 22.3392 20.7992 22 20.8C21.66 20.8 21.3748 20.9152 21.1444 21.1456C20.914 21.376 20.7992 21.6608 20.8 22V26.8C20.8 27.14 20.9152 27.4252 21.1456 27.6556C21.376 27.886 21.6608 28.0008 22 28ZM22 18.4C22.34 18.4 22.6252 18.2848 22.8556 18.0544C23.086 17.824 23.2008 17.5392 23.2 17.2C23.2 16.86 23.0848 16.5748 22.8544 16.3444C22.624 16.114 22.3392 15.9992 22 16C21.66 16 21.3748 16.1152 21.1444 16.3456C20.914 16.576 20.7992 16.8608 20.8 17.2C20.8 17.54 20.9152 17.8252 21.1456 18.0556C21.376 18.286 21.6608 18.4008 22 18.4ZM22 34C20.34 34 18.78 33.6848 17.32 33.0544C15.86 32.424 14.59 31.5692 13.51 30.49C12.43 29.41 11.5752 28.14 10.9456 26.68C10.316 25.22 10.0008 23.66 10 22C10 20.34 10.3152 18.78 10.9456 17.32C11.576 15.86 12.4308 14.59 13.51 13.51C14.59 12.43 15.86 11.5752 17.32 10.9456C18.78 10.316 20.34 10.0008 22 10C23.66 10 25.22 10.3152 26.68 10.9456C28.14 11.576 29.41 12.4308 30.49 13.51C31.57 14.59 32.4252 15.86 33.0556 17.32C33.686 18.78 34.0008 20.34 34 22C34 23.66 33.6848 25.22 33.0544 26.68C32.424 28.14 31.5692 29.41 30.49 30.49C29.41 31.57 28.14 32.4252 26.68 33.0556C25.22 33.686 23.66 34.0008 22 34ZM22 31.6C24.68 31.6 26.95 30.67 28.81 28.81C30.67 26.95 31.6 24.68 31.6 22C31.6 19.32 30.67 17.05 28.81 15.19C26.95 13.33 24.68 12.4 22 12.4C19.32 12.4 17.05 13.33 15.19 15.19C13.33 17.05 12.4 19.32 12.4 22C12.4 24.68 13.33 26.95 15.19 28.81C17.05 30.67 19.32 31.6 22 31.6Z" fill="var(--fill-0, white)"/>
</g>
</svg>
