<svg preserveAspectRatio="none" width="100%" height="100%" overflow="visible" style="display: block;" viewBox="0 0 27 27" fill="none" xmlns="http://www.w3.org/2000/svg">
<g id="fluent:person-support-24-filled">
<path id="Vector" d="M22.5002 18.2768C22.5002 17.9444 22.4347 17.6153 22.3075 17.3083C22.1802 17.0012 21.9938 16.7223 21.7587 16.4873C21.5237 16.2523 21.2446 16.066 20.9375 15.9389C20.6304 15.8118 20.3013 15.7465 19.9689 15.7466H7.03142C6.69897 15.7465 6.36975 15.8119 6.06258 15.939C5.75541 16.0662 5.4763 16.2526 5.24123 16.4877C5.00615 16.7228 4.8197 17.0019 4.69255 17.309C4.56539 17.6162 4.50002 17.9454 4.50017 18.2779V19.3129C4.50017 19.9553 4.70042 20.583 5.07392 21.1073C6.8098 23.5418 9.64705 24.7478 13.4957 24.7478C17.3432 24.7478 20.1838 23.5429 21.9219 21.1084C22.2971 20.5844 22.4993 19.9563 22.5002 19.3118V18.2768ZM19.1218 7.87727C19.1219 6.69259 18.7481 5.53811 18.0534 4.57844C17.3588 3.61877 16.379 2.90291 15.2535 2.53292C14.1281 2.16294 12.9146 2.15772 11.7861 2.51802C10.6575 2.87831 9.67151 3.58573 8.96867 4.53939C8.88715 4.51357 8.80218 4.5003 8.71667 4.50002H5.90642C5.68264 4.50002 5.46803 4.58891 5.3098 4.74715C5.15157 4.90538 5.06267 5.11999 5.06267 5.34377V11.529C5.06238 11.9355 5.14218 12.338 5.29752 12.7136C5.45287 13.0892 5.6807 13.4306 5.96801 13.7181C6.25532 14.0056 6.59648 14.2337 6.97197 14.3893C7.34747 14.5449 7.74995 14.625 8.15642 14.625H8.43767V14.6205H8.44892C8.63952 14.6208 8.82706 14.5726 8.99387 14.4804C9.16068 14.3881 9.30127 14.255 9.40239 14.0934C9.5035 13.9318 9.56183 13.7472 9.57186 13.5569C9.58189 13.3665 9.5433 13.1768 9.45972 13.0055C9.37614 12.8342 9.25033 12.6869 9.09414 12.5777C8.93795 12.4685 8.75651 12.4008 8.56694 12.3811C8.37736 12.3613 8.18588 12.3902 8.01053 12.4649C7.83518 12.5396 7.68174 12.6577 7.56467 12.8081C7.32105 12.6951 7.11487 12.5147 6.97054 12.2882C6.8262 12.0618 6.74973 11.7987 6.75017 11.5301V11.25H7.59167C8.01917 11.25 8.4163 11.1128 8.73917 10.881C9.38986 11.9126 10.3582 12.7048 11.4983 13.1381C12.6384 13.5714 13.8884 13.6225 15.06 13.2835C16.2316 12.9445 17.2614 12.234 17.994 11.2589C18.7266 10.2837 19.1224 9.09693 19.1218 7.87727ZM7.8718 7.75802C7.87015 7.83751 7.87015 7.91703 7.8718 7.99652V9.28014C7.8718 9.35473 7.84216 9.42627 7.78942 9.47902C7.73668 9.53176 7.66514 9.56139 7.59055 9.56139H6.75017V6.18864H7.87292L7.8718 7.75802Z" fill="var(--fill-0, white)"/>
</g>
</svg>
