<svg preserveAspectRatio="none" width="100%" height="100%" overflow="visible" style="display: block;" viewBox="0 0 22.5 22.5003" fill="none" xmlns="http://www.w3.org/2000/svg">
<g id="Group">
<path id="Vector" d="M1.25 8.6187H21.25M1.25 8.6187V20.1976C1.25 20.4768 1.3609 20.7446 1.55831 20.942C1.75572 21.1394 2.02346 21.2503 2.30263 21.2503H20.1974C20.4765 21.2503 20.7443 21.1394 20.9417 20.942C21.1391 20.7446 21.25 20.4768 21.25 20.1976V8.6187M1.25 8.6187V3.88186C1.25 3.60268 1.3609 3.33494 1.55831 3.13753C1.75572 2.94013 2.02346 2.82922 2.30263 2.82922H20.1974C20.4765 2.82922 20.7443 2.94013 20.9417 3.13753C21.1391 3.33494 21.25 3.60268 21.25 3.88186V8.6187" stroke="var(--stroke-0, #06B6D4)" stroke-width="2.5" stroke-linejoin="round"/>
<path id="Vector_2" d="M7.03947 14.9343L10.1974 18.0922L16.5132 11.7764" stroke="var(--stroke-0, #06B6D4)" stroke-width="2.5" stroke-linecap="round" stroke-linejoin="round"/>
<path id="Vector_3" d="M7.03947 1.25V5.46053M15.4605 1.25V5.46053" stroke="var(--stroke-0, #06B6D4)" stroke-width="2.5" stroke-linecap="round"/>
</g>
</svg>
