<svg preserveAspectRatio="none" width="100%" height="100%" overflow="visible" style="display: block;" viewBox="0 0 102.53 31.5915" fill="none" xmlns="http://www.w3.org/2000/svg">
<g id="Vector 218" filter="url(#filter0_dd_141_684)">
<path d="M99.7297 2.68191L95.0846 0V5.36381L99.7297 2.68191ZM5.27744 2.68191V2.21739H4.81292V2.68191H5.27744ZM2.8 23.5141C2.8 24.8823 3.90919 25.9915 5.27744 25.9915C6.64569 25.9915 7.75488 24.8823 7.75488 23.5141C7.75488 22.1458 6.64569 21.0366 5.27744 21.0366C3.90919 21.0366 2.8 22.1458 2.8 23.5141ZM95.5491 2.68191V2.21739H5.27744V2.68191V3.14643H95.5491V2.68191ZM5.27744 2.68191H4.81292V23.5141H5.27744H5.74196V2.68191H5.27744Z" fill="var(--stroke-0, white)" fill-opacity="0.85"/>
</g>
<defs>
<filter id="filter0_dd_141_684" x="0" y="0" width="102.53" height="31.5915" filterUnits="userSpaceOnUse" color-interpolation-filters="sRGB">
<feFlood flood-opacity="0" result="BackgroundImageFix"/>
<feColorMatrix in="SourceAlpha" type="matrix" values="0 0 0 0 0 0 0 0 0 0 0 0 0 0 0 0 0 0 127 0" result="hardAlpha"/>
<feOffset dy="2.8"/>
<feGaussianBlur stdDeviation="1.4"/>
<feComposite in2="hardAlpha" operator="out"/>
<feColorMatrix type="matrix" values="0 0 0 0 0 0 0 0 0 0 0 0 0 0 0 0 0 0 0.25 0"/>
<feBlend mode="normal" in2="BackgroundImageFix" result="effect1_dropShadow_141_684"/>
<feColorMatrix in="SourceAlpha" type="matrix" values="0 0 0 0 0 0 0 0 0 0 0 0 0 0 0 0 0 0 127 0" result="hardAlpha"/>
<feOffset dy="2.8"/>
<feGaussianBlur stdDeviation="1.4"/>
<feComposite in2="hardAlpha" operator="out"/>
<feColorMatrix type="matrix" values="0 0 0 0 0 0 0 0 0 0 0 0 0 0 0 0 0 0 0.25 0"/>
<feBlend mode="normal" in2="effect1_dropShadow_141_684" result="effect2_dropShadow_141_684"/>
<feBlend mode="normal" in="SourceGraphic" in2="effect2_dropShadow_141_684" result="shape"/>
</filter>
</defs>
</svg>
