<svg preserveAspectRatio="none" width="100%" height="100%" overflow="visible" style="display: block;" viewBox="0 0 43.0827 125.92" fill="none" xmlns="http://www.w3.org/2000/svg">
<g id="Vector 221" filter="url(#filter0_dd_141_785)">
<path d="M2.8 2.48267C2.8 3.85381 3.91153 4.96533 5.28267 4.96533C6.65381 4.96533 7.76533 3.85381 7.76533 2.48267C7.76533 1.11153 6.65381 0 5.28267 0C3.91153 0 2.8 1.11153 2.8 2.48267ZM23.4827 2.48267H23.9482V2.01717H23.4827V2.48267ZM23.4827 117.633H23.0172V118.098H23.4827V117.633ZM40.2827 117.633L35.6277 114.945V120.32L40.2827 117.633ZM5.28267 2.48267V2.94817H23.4827V2.48267V2.01717H5.28267V2.48267ZM23.4827 2.48267H23.0172V117.633H23.4827H23.9482V2.48267H23.4827ZM23.4827 117.633V118.098H36.0932V117.633V117.167H23.4827V117.633Z" fill="var(--stroke-0, white)"/>
</g>
<defs>
<filter id="filter0_dd_141_785" x="0" y="0" width="43.0827" height="125.92" filterUnits="userSpaceOnUse" color-interpolation-filters="sRGB">
<feFlood flood-opacity="0" result="BackgroundImageFix"/>
<feColorMatrix in="SourceAlpha" type="matrix" values="0 0 0 0 0 0 0 0 0 0 0 0 0 0 0 0 0 0 127 0" result="hardAlpha"/>
<feOffset dy="2.8"/>
<feGaussianBlur stdDeviation="1.4"/>
<feComposite in2="hardAlpha" operator="out"/>
<feColorMatrix type="matrix" values="0 0 0 0 0 0 0 0 0 0 0 0 0 0 0 0 0 0 0.25 0"/>
<feBlend mode="normal" in2="BackgroundImageFix" result="effect1_dropShadow_141_785"/>
<feColorMatrix in="SourceAlpha" type="matrix" values="0 0 0 0 0 0 0 0 0 0 0 0 0 0 0 0 0 0 127 0" result="hardAlpha"/>
<feOffset dy="2.8"/>
<feGaussianBlur stdDeviation="1.4"/>
<feComposite in2="hardAlpha" operator="out"/>
<feColorMatrix type="matrix" values="0 0 0 0 0 0 0 0 0 0 0 0 0 0 0 0 0 0 0.25 0"/>
<feBlend mode="normal" in2="effect1_dropShadow_141_785" result="effect2_dropShadow_141_785"/>
<feBlend mode="normal" in="SourceGraphic" in2="effect2_dropShadow_141_785" result="shape"/>
</filter>
</defs>
</svg>
