<svg preserveAspectRatio="none" width="100%" height="100%" overflow="visible" style="display: block;" viewBox="0 0 27 27" fill="none" xmlns="http://www.w3.org/2000/svg">
<g id="fluent:person-support-24-filled">
<path id="Vector" d="M22.5001 18.2772C22.5001 17.9448 22.4346 17.6157 22.3074 17.3087C22.1802 17.0016 21.9937 16.7226 21.7587 16.4877C21.5236 16.2527 21.2445 16.0664 20.9374 15.9393C20.6303 15.8122 20.3012 15.7469 19.9689 15.747H7.03136C6.69891 15.7469 6.36969 15.8123 6.06252 15.9394C5.75535 16.0666 5.47624 16.253 5.24117 16.4881C5.00609 16.7232 4.81964 17.0023 4.69249 17.3094C4.56533 17.6166 4.49996 17.9458 4.50011 18.2783V19.3133C4.50011 19.9557 4.70036 20.5834 5.07386 21.1077C6.80974 23.5422 9.64698 24.7482 13.4956 24.7482C17.3431 24.7482 20.1837 23.5433 21.9219 21.1088C22.297 20.5848 22.4992 19.9566 22.5001 19.3122V18.2772ZM19.1217 7.87766C19.1219 6.69298 18.748 5.5385 18.0534 4.57883C17.3588 3.61916 16.3789 2.9033 15.2535 2.53331C14.1281 2.16333 12.9146 2.15811 11.786 2.51841C10.6574 2.8787 9.67145 3.58612 8.96861 4.53978C8.88709 4.51396 8.80212 4.50069 8.71661 4.50041H5.90636C5.68258 4.50041 5.46797 4.5893 5.30974 4.74754C5.1515 4.90577 5.06261 5.12038 5.06261 5.34416V11.5294C5.06231 11.9359 5.14212 12.3384 5.29746 12.714C5.4528 13.0896 5.68064 13.431 5.96795 13.7185C6.25526 14.006 6.59642 14.2341 6.97191 14.3897C7.34741 14.5453 7.74989 14.6254 8.15636 14.6254H8.43761V14.6209H8.44886C8.63946 14.6212 8.827 14.573 8.99381 14.4808C9.16062 14.3885 9.30121 14.2554 9.40233 14.0938C9.50344 13.9322 9.56177 13.7476 9.5718 13.5572C9.58183 13.3669 9.54324 13.1771 9.45966 13.0058C9.37608 12.8345 9.25027 12.6873 9.09408 12.5781C8.93788 12.4689 8.75645 12.4012 8.56687 12.3814C8.3773 12.3617 8.18581 12.3906 8.01047 12.4653C7.83512 12.54 7.68168 12.6581 7.56461 12.8085C7.32098 12.6955 7.11481 12.5151 6.97048 12.2886C6.82614 12.0622 6.74967 11.7991 6.75011 11.5305V11.2504H7.59161C8.01911 11.2504 8.41624 11.1132 8.73911 10.8814C9.3898 11.913 10.3582 12.7051 11.4982 13.1385C12.6383 13.5718 13.8884 13.6228 15.06 13.2839C16.2316 12.9449 17.2613 12.2344 17.9939 11.2592C18.7265 10.2841 19.1223 9.09732 19.1217 7.87766ZM7.87174 7.75841C7.87009 7.8379 7.87009 7.91742 7.87174 7.99691V9.28053C7.87174 9.35512 7.8421 9.42666 7.78936 9.47941C7.73661 9.53215 7.66508 9.56178 7.59049 9.56178H6.75011V6.18903H7.87286L7.87174 7.75841Z" fill="var(--fill-0, white)"/>
</g>
</svg>
