<svg preserveAspectRatio="none" width="100%" height="100%" overflow="visible" style="display: block;" viewBox="0 0 318.031 285.861" fill="none" xmlns="http://www.w3.org/2000/svg">
<g id="Group">
<path id="Vector" d="M317.551 0.480469V17.3867H0.480469V0.480469H317.551Z" fill="var(--fill-0, #06B6D4)" stroke="var(--stroke-0, white)" stroke-width="0.96"/>
<path id="Vector_2" d="M272.118 30.2577V47.1639H0.480786V30.2577H272.118Z" fill="var(--fill-0, #06B6D4)" stroke="var(--stroke-0, white)" stroke-width="0.96"/>
<path id="Vector_3" d="M233.176 60.0348V76.941H0.480786V60.0348H233.176Z" fill="var(--fill-0, #06B6D4)" stroke="var(--stroke-0, white)" stroke-width="0.96"/>
<path id="Vector_4" d="M213.704 89.8121V106.718H0.480786V89.8121H213.704Z" fill="var(--fill-0, #06B6D4)" stroke="var(--stroke-0, white)" stroke-width="0.96"/>
<path id="Vector_5" d="M187.743 119.589V136.496H0.480786V119.589H187.743Z" fill="var(--fill-0, #06B6D4)" stroke="var(--stroke-0, white)" stroke-width="0.96"/>
<path id="Vector_6" d="M174.762 149.367V166.273H0.480835V149.367H174.762Z" fill="var(--fill-0, #06B6D4)" stroke="var(--stroke-0, white)" stroke-width="0.96"/>
<path id="Vector_7" d="M142.31 179.144V196.05H0.480835V179.144H142.31Z" fill="var(--fill-0, #06B6D4)" stroke="var(--stroke-0, white)" stroke-width="0.96"/>
<path id="Vector_8" d="M122.838 208.921V225.828H0.480835V208.921H122.838Z" fill="var(--fill-0, #06B6D4)" stroke="var(--stroke-0, white)" stroke-width="0.96"/>
<path id="Vector_9" d="M116.348 238.698V255.604H0.480786V238.698H116.348Z" fill="var(--fill-0, #06B6D4)" stroke="var(--stroke-0, white)" stroke-width="0.96"/>
<path id="Vector_10" d="M96.8773 268.476V285.382H0.480786V268.476H96.8773Z" fill="var(--fill-0, #06B6D4)" stroke="var(--stroke-0, white)" stroke-width="0.96"/>
</g>
</svg>
