<svg preserveAspectRatio="none" width="100%" height="100%" overflow="visible" style="display: block;" viewBox="0 0 27 27" fill="none" xmlns="http://www.w3.org/2000/svg">
<g id="fluent:person-support-24-filled">
<path id="Vector" d="M22.5001 18.2772C22.5001 17.9448 22.4347 17.6157 22.3074 17.3087C22.1802 17.0016 21.9938 16.7226 21.7587 16.4877C21.5236 16.2527 21.2446 16.0664 20.9375 15.9393C20.6304 15.8122 20.3013 15.7469 19.9689 15.747H7.0314C6.69895 15.7469 6.36973 15.8123 6.06255 15.9394C5.75538 16.0666 5.47628 16.253 5.2412 16.4881C5.00613 16.7232 4.81968 17.0023 4.69253 17.3094C4.56537 17.6166 4.5 17.9458 4.50015 18.2783V19.3133C4.50015 19.9557 4.7004 20.5834 5.0739 21.1077C6.80977 23.5422 9.64702 24.7482 13.4956 24.7482C17.3431 24.7482 20.1838 23.5433 21.9219 21.1088C22.2971 20.5848 22.4992 19.9566 22.5001 19.3122V18.2772ZM19.1218 7.87766C19.1219 6.69298 18.748 5.5385 18.0534 4.57883C17.3588 3.61916 16.3789 2.9033 15.2535 2.53331C14.1281 2.16333 12.9146 2.15811 11.786 2.51841C10.6575 2.8787 9.67148 3.58612 8.96865 4.53978C8.88713 4.51396 8.80216 4.50069 8.71665 4.50041H5.9064C5.68262 4.50041 5.46801 4.5893 5.30978 4.74754C5.15154 4.90577 5.06265 5.12038 5.06265 5.34416V11.5294C5.06235 11.9359 5.14216 12.3384 5.2975 12.714C5.45284 13.0896 5.68068 13.431 5.96799 13.7185C6.2553 14.006 6.59645 14.2341 6.97195 14.3897C7.34745 14.5453 7.74993 14.6254 8.1564 14.6254H8.43765V14.6209H8.4489C8.6395 14.6212 8.82704 14.573 8.99385 14.4808C9.16066 14.3885 9.30124 14.2554 9.40236 14.0938C9.50348 13.9322 9.5618 13.7476 9.57183 13.5572C9.58186 13.3669 9.54327 13.1771 9.4597 13.0058C9.37612 12.8345 9.25031 12.6873 9.09411 12.5781C8.93792 12.4689 8.75649 12.4012 8.56691 12.3814C8.37733 12.3617 8.18585 12.3906 8.0105 12.4653C7.83516 12.54 7.68172 12.6581 7.56465 12.8085C7.32102 12.6955 7.11485 12.5151 6.97051 12.2886C6.82617 12.0622 6.7497 11.7991 6.75015 11.5305V11.2504H7.59165C8.01915 11.2504 8.41627 11.1132 8.73915 10.8814C9.38983 11.913 10.3582 12.7051 11.4983 13.1385C12.6384 13.5718 13.8884 13.6228 15.06 13.2839C16.2316 12.9449 17.2613 12.2344 17.9939 11.2592C18.7266 10.2841 19.1224 9.09732 19.1218 7.87766ZM7.87177 7.75841C7.87012 7.8379 7.87012 7.91742 7.87177 7.99691V9.28053C7.87177 9.35512 7.84214 9.42666 7.7894 9.47941C7.73665 9.53215 7.66511 9.56178 7.59052 9.56178H6.75015V6.18903H7.8729L7.87177 7.75841Z" fill="var(--fill-0, white)"/>
</g>
</svg>
