<svg preserveAspectRatio="none" width="100%" height="100%" overflow="visible" style="display: block;" viewBox="0 0 27 27" fill="none" xmlns="http://www.w3.org/2000/svg">
<g id="fluent:person-support-24-filled">
<path id="Vector" d="M22.5002 18.2772C22.5002 17.9448 22.4347 17.6157 22.3075 17.3087C22.1802 17.0016 21.9938 16.7226 21.7587 16.4877C21.5237 16.2527 21.2446 16.0664 20.9375 15.9393C20.6304 15.8122 20.3013 15.7469 19.9689 15.747H7.03142C6.69897 15.7469 6.36975 15.8123 6.06258 15.9394C5.75541 16.0666 5.4763 16.253 5.24123 16.4881C5.00615 16.7232 4.8197 17.0023 4.69255 17.3094C4.56539 17.6166 4.50002 17.9458 4.50017 18.2783V19.3133C4.50017 19.9557 4.70042 20.5834 5.07392 21.1077C6.8098 23.5422 9.64705 24.7482 13.4957 24.7482C17.3432 24.7482 20.1838 23.5433 21.9219 21.1088C22.2971 20.5848 22.4993 19.9566 22.5002 19.3122V18.2772ZM19.1218 7.87766C19.1219 6.69298 18.7481 5.5385 18.0534 4.57883C17.3588 3.61916 16.379 2.9033 15.2535 2.53331C14.1281 2.16333 12.9146 2.15811 11.7861 2.51841C10.6575 2.8787 9.67151 3.58612 8.96867 4.53978C8.88715 4.51396 8.80218 4.50069 8.71667 4.50041H5.90642C5.68264 4.50041 5.46803 4.5893 5.3098 4.74754C5.15157 4.90577 5.06267 5.12038 5.06267 5.34416V11.5294C5.06238 11.9359 5.14218 12.3384 5.29752 12.714C5.45287 13.0896 5.6807 13.431 5.96801 13.7185C6.25532 14.006 6.59648 14.2341 6.97197 14.3897C7.34747 14.5453 7.74995 14.6254 8.15642 14.6254H8.43767V14.6209H8.44892C8.63952 14.6212 8.82706 14.573 8.99387 14.4808C9.16068 14.3885 9.30127 14.2554 9.40239 14.0938C9.5035 13.9322 9.56183 13.7476 9.57186 13.5572C9.58189 13.3669 9.5433 13.1771 9.45972 13.0058C9.37614 12.8345 9.25033 12.6873 9.09414 12.5781C8.93795 12.4689 8.75651 12.4012 8.56694 12.3814C8.37736 12.3617 8.18588 12.3906 8.01053 12.4653C7.83518 12.54 7.68174 12.6581 7.56467 12.8085C7.32105 12.6955 7.11487 12.5151 6.97054 12.2886C6.8262 12.0622 6.74973 11.7991 6.75017 11.5305V11.2504H7.59167C8.01917 11.2504 8.4163 11.1132 8.73917 10.8814C9.38986 11.913 10.3582 12.7051 11.4983 13.1385C12.6384 13.5718 13.8884 13.6228 15.06 13.2839C16.2316 12.9449 17.2614 12.2344 17.994 11.2592C18.7266 10.2841 19.1224 9.09732 19.1218 7.87766ZM7.8718 7.75841C7.87015 7.8379 7.87015 7.91742 7.8718 7.99691V9.28053C7.8718 9.35512 7.84216 9.42666 7.78942 9.47941C7.73668 9.53215 7.66514 9.56178 7.59055 9.56178H6.75017V6.18903H7.87292L7.8718 7.75841Z" fill="var(--fill-0, white)"/>
</g>
</svg>
