<svg preserveAspectRatio="none" width="100%" height="100%" overflow="visible" style="display: block;" viewBox="0 0 164.621 250.521" fill="none" xmlns="http://www.w3.org/2000/svg">
<path id="Vector" d="M39.3606 0.94465C57.3308 0.94463 75.0873 4.84052 91.4068 12.3639C107.726 19.8872 122.221 30.8592 133.891 44.5238C145.562 58.1884 154.131 74.2208 159.009 91.5162C163.887 108.812 164.957 126.959 162.146 144.708C159.335 162.457 152.709 179.385 142.726 194.327C132.742 209.269 119.638 221.868 104.316 231.257C88.9936 240.647 71.818 246.603 53.9725 248.715C36.1269 250.827 18.0355 249.045 0.944905 243.492L18.5063 189.444C27.7841 192.458 37.6051 193.425 47.2927 192.279C56.9803 191.132 66.3041 187.899 74.6218 182.802C82.9395 177.705 90.0532 170.865 95.4729 162.754C100.893 154.643 104.489 145.453 106.015 135.818C107.542 126.183 106.961 116.331 104.313 106.942C101.665 97.5533 97.0127 88.8501 90.6772 81.4321C84.3417 74.0142 76.4733 68.058 67.6142 63.9739C58.7551 59.8898 49.1158 57.7748 39.3606 57.7748V0.94465Z" fill="var(--fill-0, #06B6D4)" stroke="var(--stroke-0, white)" stroke-width="1.8893" stroke-linejoin="round"/>
</svg>
