<svg preserveAspectRatio="none" width="100%" height="100%" overflow="visible" style="display: block;" viewBox="0 0 60 36" fill="none" xmlns="http://www.w3.org/2000/svg">
<g id="Group">
<path id="Vector" d="M21 6.75C21 8.54021 20.2889 10.2571 19.023 11.523C17.7571 12.7888 16.0402 13.5 14.25 13.5C13.3635 13.5002 12.4857 13.3257 11.6667 12.9866C10.8476 12.6474 10.1034 12.1502 9.47661 11.5234C8.84978 10.8966 8.35259 10.1524 8.01344 9.33335C7.67429 8.51431 7.49983 7.63648 7.50002 6.75C7.50002 3.021 10.521 0 14.25 0C17.979 0 21 3.021 21 6.75ZM2.44141e-05 24.4995C2.44141e-05 19.1805 9.49502 16.5 14.25 16.5C19.005 16.5 28.5 19.1805 28.5 24.4995V36H2.44141e-05V24.4995ZM52.5 6.75C52.5 8.54021 51.7889 10.2571 50.523 11.523C49.2571 12.7888 47.5402 13.5 45.75 13.5C44.8635 13.5002 43.9857 13.3257 43.1667 12.9866C42.3476 12.6474 41.6034 12.1502 40.9766 11.5234C40.3498 10.8966 39.8526 10.1524 39.5134 9.33335C39.1743 8.51431 38.9998 7.63648 39 6.75C39 3.021 42.021 0 45.75 0C49.479 0 52.5 3.021 52.5 6.75ZM34.5 4.5C34.5 5.69347 34.0259 6.83807 33.182 7.68198C32.3381 8.5259 31.1935 9 30 9C28.8066 9 27.662 8.5259 26.818 7.68198C25.9741 6.83807 25.5 5.69347 25.5 4.5C25.5 3.30653 25.9741 2.16193 26.818 1.31802C27.662 0.474105 28.8066 0 30 0C31.1935 0 32.3381 0.474105 33.182 1.31802C34.0259 2.16193 34.5 3.30653 34.5 4.5ZM31.5 24.4995C31.5 19.1805 40.995 16.5 45.75 16.5C50.505 16.5 60 19.1805 60 24.4995V36H31.5V24.4995Z" fill="var(--fill-0, white)"/>
<path id="Vector_2" fill-rule="evenodd" clip-rule="evenodd" d="M37.1252 15.2775C36.7262 15.4245 36.3302 15.5805 35.9432 15.747C34.1882 16.497 32.4137 17.511 31.0352 18.867C30.6662 19.2315 30.3152 19.629 30.0002 20.0625C29.6882 19.6366 29.3421 19.2367 28.9652 18.867C27.5867 17.511 25.8137 16.497 24.0557 15.747C23.6658 15.5804 23.2717 15.4238 22.8737 15.2775C25.1582 14.094 28.0952 13.5 30.0002 13.5C31.9052 13.5 34.8422 14.094 37.1252 15.2775Z" fill="var(--fill-0, white)"/>
</g>
</svg>
