<svg preserveAspectRatio="none" width="100%" height="100%" overflow="visible" style="display: block;" viewBox="0 0 23 23.0006" fill="none" xmlns="http://www.w3.org/2000/svg">
<path id="Vector" fill-rule="evenodd" clip-rule="evenodd" d="M5.2097 0.594845C6.66422 0.0122696 8.25398 -0.146546 9.79501 0.136774C11.336 0.420094 12.7653 1.13397 13.9175 2.19579C15.0697 3.25762 15.8977 4.62399 16.3057 6.1368C16.7137 7.64961 16.685 9.24702 16.2229 10.7442L21.4297 15.1499C21.8987 15.5485 22.2801 16.0399 22.5497 16.5932C22.8193 17.1465 22.9714 17.7497 22.9963 18.3647C23.0213 18.9797 22.9185 19.5932 22.6945 20.1665C22.4706 20.7398 22.1302 21.2604 21.695 21.6957C21.2598 22.1309 20.7391 22.4712 20.1658 22.6952C19.5925 22.9192 18.979 23.0219 18.364 22.997C17.749 22.9721 17.1459 22.82 16.5926 22.5503C16.0393 22.2807 15.5479 21.8994 15.1493 21.4303L10.7447 16.2235C9.24743 16.6858 7.64984 16.7146 6.13686 16.3065C4.62388 15.8985 3.25737 15.0704 2.19549 13.918C1.13361 12.7656 0.419777 11.3361 0.136602 9.79488C-0.146573 8.25365 0.012492 6.66374 0.595386 5.20915C1.01961 4.14978 2.34916 4.01588 3.04 4.76716L6.83549 8.88852L8.54897 8.54724L8.89261 6.83021L4.76888 3.04064C4.01761 2.3498 4.14914 1.01907 5.2097 0.594845ZM7.58795 2.41497L10.862 5.42482C11.2436 5.77558 11.4142 6.29934 11.3123 6.80532L10.7554 9.59476C10.698 9.88183 10.5569 10.1455 10.3498 10.3524C10.1426 10.5593 9.87888 10.7001 9.59175 10.7572L6.80705 11.3106C6.55782 11.3602 6.30004 11.3448 6.05848 11.2659C5.81692 11.1871 5.59971 11.0474 5.42773 10.8603L2.41314 7.58741C2.29044 8.60666 2.43456 9.64031 2.83141 10.5871C3.22826 11.5339 3.86422 12.3614 4.677 12.9886C5.48979 13.6157 6.45153 14.021 7.46803 14.1648C8.48453 14.3085 9.52094 14.1858 10.4757 13.8086C10.7653 13.6936 11.0836 13.6724 11.3859 13.7479C11.6882 13.8233 11.9592 13.9917 12.1608 14.2292L16.96 19.9005C17.1461 20.1214 17.376 20.3012 17.6353 20.4285C17.8945 20.5558 18.1774 20.6279 18.466 20.6402C18.7545 20.6525 19.0425 20.6047 19.3117 20.4999C19.5808 20.3951 19.8252 20.2355 20.0294 20.0313C20.2337 19.827 20.3933 19.5826 20.4981 19.3135C20.6029 19.0443 20.6507 18.7564 20.6384 18.4678C20.6261 18.1792 20.554 17.8964 20.4267 17.6371C20.2994 17.3779 20.1196 17.1479 19.8987 16.9618L14.2286 12.1626C13.991 11.961 13.8227 11.69 13.7472 11.3877C13.6718 11.0855 13.693 10.7672 13.8079 10.4776C14.1855 9.52277 14.3085 8.48625 14.1649 7.4696C14.0213 6.45294 13.6161 5.49103 12.9888 4.67814C12.3616 3.86525 11.5339 3.22927 10.5869 2.83253C9.63994 2.43579 8.60611 2.29191 7.58676 2.41497H7.58795Z" fill="var(--fill-0, #06B6D4)"/>
</svg>
