<svg preserveAspectRatio="none" width="100%" height="100%" overflow="visible" style="display: block;" viewBox="0 0 26 18.0045" fill="none" xmlns="http://www.w3.org/2000/svg">
<path id="Vector" d="M5.71675 3.039L4.6475 6H9.75V1.5H8.03075C7.51882 1.49973 7.0198 1.64825 6.60445 1.92448C6.1891 2.20072 5.87852 2.59067 5.71675 3.039ZM4.108 7.5L4.1015 7.515L3.66925 7.614L3.471 7.659C2.94348 7.7808 2.47523 8.06194 2.14073 8.45768C1.80623 8.85343 1.6247 9.34105 1.625 9.843V12.375C1.625 12.615 1.70625 12.84 1.84763 13.023C2.13945 12.2465 2.69945 11.58 3.44154 11.1259C4.18363 10.6717 5.06675 10.4551 5.95518 10.5093C6.84361 10.5634 7.68818 10.8854 8.3591 11.4258C9.03001 11.9661 9.49013 12.6948 9.66875 13.5H16.3313C16.5087 12.694 16.9684 11.9642 17.6393 11.423C18.3103 10.8819 19.1554 10.5593 20.0445 10.5051C20.9336 10.4509 21.8173 10.668 22.5596 11.1229C23.3019 11.5779 23.8616 12.2456 24.1524 13.023C24.2976 12.8335 24.3754 12.6071 24.375 12.375V10.5555C24.3752 10.0595 24.1978 9.57729 23.8704 9.18395C23.543 8.7906 23.084 8.50814 22.5647 8.3805L18.9881 7.5H4.108ZM17.6686 6L15.6552 2.658C15.4444 2.30739 15.1359 2.01516 14.7616 1.81156C14.3873 1.60796 13.9609 1.5004 13.5265 1.5H11.375V6H17.6686ZM26 12.375C26 12.8783 25.8434 13.3709 25.5486 13.7943C25.2539 14.2177 24.8335 14.5539 24.3376 14.763C24.2075 15.6406 23.745 16.4474 23.0321 17.0403C22.3192 17.6333 21.402 17.9741 20.4429 18.0025C19.4838 18.0309 18.5447 17.745 17.7921 17.1954C17.0396 16.6459 16.522 15.8681 16.3313 15H9.66875C9.47797 15.8681 8.96044 16.6459 8.20786 17.1954C7.45529 17.745 6.51625 18.0309 5.55714 18.0025C4.59802 17.9741 3.68076 17.6333 2.96788 17.0403C2.25499 16.4474 1.79251 15.6406 1.66238 14.763C1.16645 14.5539 0.746087 14.2177 0.451356 13.7943C0.156625 13.3709 -4.82281e-05 12.8783 1.11362e-08 12.375V9.843C-3.368e-05 9.04579 0.275164 8.26932 0.78565 7.62628C1.29613 6.98325 2.01534 6.50712 2.83887 6.267L4.17625 2.5635C4.44603 1.81688 4.96346 1.16754 5.65524 0.707452C6.34703 0.247366 7.17811 -0.000136957 8.03075 8.98405e-08H13.5249C14.2495 -0.000146312 14.9611 0.17864 15.5857 0.517823C16.2103 0.857006 16.7252 1.34424 17.0771 1.929L19.5829 6.0945L22.984 6.9315C23.8491 7.14438 24.6137 7.61508 25.1591 8.27043C25.7045 8.92579 26.0001 9.72909 26 10.5555V12.375ZM5.6875 12C5.04103 12 4.42105 12.2371 3.96393 12.659C3.50681 13.081 3.25 13.6533 3.25 14.25C3.25 14.8467 3.50681 15.419 3.96393 15.841C4.42105 16.2629 5.04103 16.5 5.6875 16.5C6.33397 16.5 6.95395 16.2629 7.41107 15.841C7.86819 15.419 8.125 14.8467 8.125 14.25C8.125 13.6533 7.86819 13.081 7.41107 12.659C6.95395 12.2371 6.33397 12 5.6875 12ZM20.3125 12C19.666 12 19.046 12.2371 18.5889 12.659C18.1318 13.081 17.875 13.6533 17.875 14.25C17.875 14.8467 18.1318 15.419 18.5889 15.841C19.046 16.2629 19.666 16.5 20.3125 16.5C20.959 16.5 21.579 16.2629 22.0361 15.841C22.4932 15.419 22.75 14.8467 22.75 14.25C22.75 13.6533 22.4932 13.081 22.0361 12.659C21.579 12.2371 20.959 12 20.3125 12Z" fill="var(--fill-0, #06B6D4)"/>
</svg>
