<svg preserveAspectRatio="none" width="100%" height="100%" overflow="visible" style="display: block;" viewBox="0 0 151.045 20.9925" fill="none" xmlns="http://www.w3.org/2000/svg">
<path id="Arrow 1" d="M29.1979 15.0968L28.855 15.7949L29.079 15.9049L29.3252 15.8641L29.1979 15.0968ZM115.362 0.808124L115.705 0.110025L115.481 0L115.235 0.0408249L115.362 0.808124ZM150.518 18.6903C150.925 18.5516 151.142 18.1096 151.003 17.7031L148.743 11.0781C148.604 10.6715 148.162 10.4544 147.755 10.5931C147.349 10.7318 147.132 11.1738 147.27 11.5804L149.28 17.4693L143.391 19.4784C142.984 19.6172 142.767 20.0592 142.906 20.4657C143.044 20.8723 143.486 21.0894 143.893 20.9507L150.518 18.6903ZM0.342925 0.92243L0 1.62053L28.855 15.7949L29.1979 15.0968L29.5409 14.3987L0.68585 0.224332L0.342925 0.92243ZM29.1979 15.0968L29.3252 15.8641L115.489 1.57542L115.362 0.808124L115.235 0.0408249L29.0707 14.3295L29.1979 15.0968ZM115.362 0.808124L115.019 1.50622L149.924 18.6523L150.267 17.9542L150.61 17.2561L115.705 0.110025L115.362 0.808124Z" fill="var(--stroke-0, white)"/>
</svg>
