<svg preserveAspectRatio="none" width="100%" height="100%" overflow="visible" style="display: block;" viewBox="0 0 27 27" fill="none" xmlns="http://www.w3.org/2000/svg">
<g id="fluent:person-support-24-filled">
<path id="Vector" d="M22.5001 18.2768C22.5001 17.9444 22.4346 17.6153 22.3074 17.3083C22.1802 17.0012 21.9937 16.7223 21.7587 16.4873C21.5236 16.2523 21.2445 16.066 20.9374 15.9389C20.6303 15.8118 20.3012 15.7465 19.9689 15.7466H7.03136C6.69891 15.7465 6.36969 15.8119 6.06252 15.939C5.75535 16.0662 5.47624 16.2526 5.24117 16.4877C5.00609 16.7228 4.81964 17.0019 4.69249 17.309C4.56533 17.6162 4.49996 17.9454 4.50011 18.2779V19.3129C4.50011 19.9553 4.70036 20.583 5.07386 21.1073C6.80974 23.5418 9.64698 24.7478 13.4956 24.7478C17.3431 24.7478 20.1837 23.5429 21.9219 21.1084C22.297 20.5844 22.4992 19.9563 22.5001 19.3118V18.2768ZM19.1217 7.87727C19.1219 6.69259 18.748 5.53811 18.0534 4.57844C17.3588 3.61877 16.3789 2.90291 15.2535 2.53292C14.1281 2.16294 12.9146 2.15772 11.786 2.51802C10.6574 2.87831 9.67145 3.58573 8.96861 4.53939C8.88709 4.51357 8.80212 4.5003 8.71661 4.50002H5.90636C5.68258 4.50002 5.46797 4.58891 5.30974 4.74715C5.1515 4.90538 5.06261 5.11999 5.06261 5.34377V11.529C5.06231 11.9355 5.14212 12.338 5.29746 12.7136C5.4528 13.0892 5.68064 13.4306 5.96795 13.7181C6.25526 14.0056 6.59642 14.2337 6.97191 14.3893C7.34741 14.5449 7.74989 14.625 8.15636 14.625H8.43761V14.6205H8.44886C8.63946 14.6208 8.827 14.5726 8.99381 14.4804C9.16062 14.3881 9.30121 14.255 9.40233 14.0934C9.50344 13.9318 9.56177 13.7472 9.5718 13.5569C9.58183 13.3665 9.54324 13.1768 9.45966 13.0055C9.37608 12.8342 9.25027 12.6869 9.09408 12.5777C8.93788 12.4685 8.75645 12.4008 8.56687 12.3811C8.3773 12.3613 8.18581 12.3902 8.01047 12.4649C7.83512 12.5396 7.68168 12.6577 7.56461 12.8081C7.32098 12.6951 7.11481 12.5147 6.97048 12.2882C6.82614 12.0618 6.74967 11.7987 6.75011 11.5301V11.25H7.59161C8.01911 11.25 8.41624 11.1128 8.73911 10.881C9.3898 11.9126 10.3582 12.7048 11.4982 13.1381C12.6383 13.5714 13.8884 13.6225 15.06 13.2835C16.2316 12.9445 17.2613 12.234 17.9939 11.2589C18.7265 10.2837 19.1223 9.09693 19.1217 7.87727ZM7.87174 7.75802C7.87009 7.83751 7.87009 7.91703 7.87174 7.99652V9.28014C7.87174 9.35473 7.8421 9.42627 7.78936 9.47902C7.73661 9.53176 7.66508 9.56139 7.59049 9.56139H6.75011V6.18864H7.87286L7.87174 7.75802Z" fill="var(--fill-0, white)"/>
</g>
</svg>
