<svg preserveAspectRatio="none" width="100%" height="100%" overflow="visible" style="display: block;" viewBox="0 0 35 35" fill="none" xmlns="http://www.w3.org/2000/svg">
<g id="Group 18">
<path id="Vector" d="M7.5001 2.50001C6.80917 2.50001 6.25008 3.0591 6.25008 3.75002C6.25008 4.0203 5.9233 4.15566 5.73218 3.96454L2.13382 0.366213C1.64553 -0.122071 0.854504 -0.122071 0.366216 0.366213C-0.122072 0.854496 -0.122072 1.64552 0.366216 2.1338L3.96457 5.73212C4.15569 5.92324 4.02033 6.25003 3.75005 6.25003C3.05912 6.25003 2.50003 6.80911 2.50003 7.50003C2.50003 8.19096 3.05912 8.75004 3.75005 8.75004H7.5001C8.19103 8.75004 8.75012 8.19096 8.75012 7.50003V3.75002C8.75012 3.0591 8.19103 2.50001 7.5001 2.50001Z" fill="var(--fill-0, white)"/>
<path id="Vector_2" d="M7.5001 26.2498H3.75005C3.05912 26.2498 2.50003 26.8089 2.50003 27.4998C2.50003 28.1908 3.05912 28.7498 3.75005 28.7498C4.02033 28.7498 4.15569 29.0766 3.96457 29.2678L0.366216 32.8661C-0.122072 33.3544 -0.122072 34.1454 0.366216 34.6337C0.61036 34.8778 0.930188 34.9999 1.25002 34.9999C1.56985 34.9999 1.88967 34.8778 2.13382 34.6337L5.73218 31.0353C5.9233 30.8442 6.25008 30.9796 6.25008 31.2499C6.25008 31.9408 6.80917 32.4999 7.5001 32.4999C8.19103 32.4999 8.75012 31.9408 8.75012 31.2499V27.4998C8.75012 26.8089 8.19103 26.2498 7.5001 26.2498Z" fill="var(--fill-0, white)"/>
<path id="Vector_3" d="M31.0354 29.2678C30.8443 29.0766 30.9796 28.7498 31.2499 28.7498C31.9408 28.7498 32.4999 28.1908 32.4999 27.4998C32.4999 26.8089 31.9408 26.2498 31.2499 26.2498H27.4999C26.8089 26.2498 26.2498 26.8089 26.2498 27.4998V31.2499C26.2498 31.9408 26.8089 32.4999 27.4999 32.4999C28.1908 32.4999 28.7499 31.9408 28.7499 31.2499C28.7499 30.9796 29.0767 30.8442 29.2678 31.0353L32.8661 34.6337C33.1103 34.8778 33.4301 34.9999 33.7499 34.9999C34.0698 34.9999 34.3896 34.8778 34.6337 34.6337C35.122 34.1454 35.122 33.3544 34.6337 32.8661L31.0354 29.2678Z" fill="var(--fill-0, white)"/>
<path id="Vector_4" d="M27.4999 8.75004H31.2499C31.9408 8.75004 32.4999 8.19096 32.4999 7.50003C32.4999 6.80911 31.9408 6.25003 31.2499 6.25003C30.9796 6.25003 30.8443 5.92324 31.0354 5.73212L34.6337 2.1338C35.122 1.64552 35.122 0.854496 34.6337 0.366213C34.1455 -0.122071 33.3544 -0.122071 32.8661 0.366213L29.2678 3.96454C29.0767 4.15566 28.7499 4.0203 28.7499 3.75002C28.7499 3.0591 28.1908 2.50001 27.4999 2.50001C26.8089 2.50001 26.2498 3.0591 26.2498 3.75002V7.50003C26.2498 8.19096 26.8089 8.75004 27.4999 8.75004Z" fill="var(--fill-0, white)"/>
<path id="Vector_5" d="M17.5003 6.24988C11.287 6.24988 6.25017 11.2867 6.25017 17.4999C6.25017 23.7131 11.287 28.75 17.5003 28.75C23.7136 28.75 28.7505 23.7131 28.7505 17.4999C28.7505 11.2867 23.7136 6.24988 17.5003 6.24988ZM17.5003 22.4999C14.7431 22.4999 12.5003 20.2571 12.5003 17.4999C12.5003 14.7427 14.7431 12.4999 17.5003 12.4999C20.2575 12.4999 22.5004 14.7427 22.5004 17.4999C22.5004 20.2571 20.2575 22.4999 17.5003 22.4999Z" fill="var(--fill-0, white)"/>
<path id="Vector_6" d="M17.4997 21.2507C19.5708 21.2507 21.2497 19.5718 21.2497 17.5007C21.2497 15.4296 19.5708 13.7507 17.4997 13.7507C15.4286 13.7507 13.7496 15.4296 13.7496 17.5007C13.7496 19.5718 15.4286 21.2507 17.4997 21.2507Z" fill="var(--fill-0, white)"/>
</g>
</svg>
