<svg preserveAspectRatio="none" width="100%" height="100%" overflow="visible" style="display: block;" viewBox="0 0 44 44" fill="none" xmlns="http://www.w3.org/2000/svg">
<g id="Icon">
<path id="Vector" d="M38.2389 6.28125H5.75747C4.78699 6.28125 4 7.07406 4 8.05171V36.5108C4 37.4849 4.78699 38.2812 5.75747 38.2812H38.2425C39.2095 38.2812 40 37.4884 40 36.5108V8.05171C39.9965 7.07406 39.2094 6.28125 38.2389 6.28125ZM15.6425 8.40725C16.2283 8.40725 16.7047 8.8872 16.7047 9.47737C16.7047 10.0675 16.2283 10.5475 15.6425 10.5475C15.0566 10.5475 14.5802 10.0675 14.5802 9.47737C14.5802 8.8872 15.0566 8.40725 15.6425 8.40725ZM11.4076 8.40725C11.9934 8.40725 12.4699 8.8872 12.4699 9.47737C12.4699 10.0675 11.9934 10.5475 11.4076 10.5475C10.8218 10.5475 10.3453 10.0675 10.3453 9.47737C10.3453 8.8872 10.8218 8.40725 11.4076 8.40725ZM7.17271 10.5474C6.58687 10.5474 6.11044 10.0675 6.11044 9.47733C6.11044 8.88716 6.58687 8.40721 7.17271 8.40721C7.75855 8.40721 8.23498 8.88716 8.23498 9.47733C8.23498 10.0675 7.75855 10.5474 7.17271 10.5474ZM19.5282 32.9451C19.5282 33.1406 19.3694 33.3006 19.1753 33.3006H9.29388C9.09978 33.3006 8.94097 33.1406 8.94097 32.9451V16.5911C8.94097 16.3956 9.09978 16.2356 9.29388 16.2356H19.1753C19.3694 16.2356 19.5282 16.3956 19.5282 16.5911V32.9451ZM35.0561 32.9451C35.0561 33.1406 34.8973 33.3006 34.7032 33.3006H24.1158C23.9217 33.3006 23.7628 33.1406 23.7628 32.9451V27.2568C23.7628 27.0613 23.9217 26.9013 24.1158 26.9013H34.7032C34.8973 26.9013 35.0561 27.0613 35.0561 27.2568V32.9451ZM35.0561 22.2794C35.0561 22.4749 34.8973 22.6349 34.7032 22.6349H24.1158C23.9217 22.6349 23.7628 22.4749 23.7628 22.2794V16.5911C23.7628 16.3956 23.9217 16.2356 24.1158 16.2356H34.7032C34.8973 16.2356 35.0561 16.3956 35.0561 16.5911V22.2794Z" fill="var(--fill-0, white)"/>
</g>
</svg>
