<svg preserveAspectRatio="none" width="100%" height="100%" overflow="visible" style="display: block;" viewBox="0 0 44 44" fill="none" xmlns="http://www.w3.org/2000/svg">
<g id="Icon">
<path id="Vector" d="M32.5 40.2812C28.3645 40.2812 25 36.9167 25 32.7812V28.2812H19V32.7812C19 36.9167 15.6355 40.2812 11.5 40.2812C7.3645 40.2812 4 36.9167 4 32.7812C4 28.6457 7.3645 25.2812 11.5 25.2812H16V19.2812H11.5C7.3645 19.2812 4 15.9167 4 11.7812C4 7.64575 7.3645 4.28125 11.5 4.28125C15.6355 4.28125 19 7.64575 19 11.7812V16.2812H25V11.7812C25 7.64575 28.3645 4.28125 32.5 4.28125C36.6355 4.28125 40 7.64575 40 11.7812C40 15.9167 36.6355 19.2812 32.5 19.2812H28V25.2812H32.5C36.6355 25.2812 40 28.6457 40 32.7812C40 36.9167 36.6355 40.2812 32.5 40.2812ZM28 28.2812V32.7812C28 35.2622 30.019 37.2812 32.5 37.2812C34.981 37.2812 37 35.2622 37 32.7812C37 30.3002 34.981 28.2812 32.5 28.2812H28ZM11.5 28.2812C9.019 28.2812 7 30.3002 7 32.7812C7 35.2622 9.019 37.2812 11.5 37.2812C13.981 37.2812 16 35.2622 16 32.7812V28.2812H11.5ZM19 25.2812H25V19.2812H19V25.2812ZM28 16.2812H32.5C34.981 16.2812 37 14.2622 37 11.7812C37 9.30025 34.981 7.28125 32.5 7.28125C30.019 7.28125 28 9.30025 28 11.7812V16.2812ZM11.5 7.28125C9.019 7.28125 7 9.30025 7 11.7812C7 14.2622 9.019 16.2812 11.5 16.2812H16V11.7812C16 9.30025 13.981 7.28125 11.5 7.28125Z" fill="var(--fill-0, white)"/>
</g>
</svg>
