<svg preserveAspectRatio="none" width="100%" height="100%" overflow="visible" style="display: block;" viewBox="0 0 40 40" fill="none" xmlns="http://www.w3.org/2000/svg">
<g id="Icon">
<path id="Vector" d="M14.1103 13.7712C14.1103 14.2028 13.7605 14.5526 13.3289 14.5526C12.8973 14.5526 12.5474 14.9025 12.5474 15.3341V24.1221C12.5474 27.0502 14.9212 29.4239 17.8493 29.4239C18.8472 29.4239 19.6527 28.6185 19.6527 27.6206V20.5156C19.6527 20.2872 19.833 20.0948 20.0614 20.0948H27.1667C28.1646 20.0948 28.9701 19.2893 28.9701 18.2915C28.9701 15.3634 26.5964 12.9897 23.6683 12.9897H14.8918C14.4602 12.9897 14.1103 13.3396 14.1103 13.7712Z" fill="var(--fill-0, white)"/>
<path id="Vector_2" d="M27.1684 0.474121H13.8115C6.18928 0.474121 -0.00226985 6.65347 0.00975259 14.2875L0.0217739 27.62C0.0217739 28.6178 0.827277 29.4233 1.82514 29.4233H3.2981C7.4047 29.4233 10.7338 26.0943 10.7338 21.9876V15.3334C10.7338 14.9019 10.3839 14.552 9.9523 14.552C9.52072 14.552 9.17085 14.2021 9.17085 13.7705V12.0875C9.17085 10.7263 10.2743 9.62293 11.6354 9.62293H13.3186C13.7502 9.62293 14.1 9.97279 14.1 10.4044C14.1 10.8359 14.4499 11.1858 14.8815 11.1858H21.5359C25.6426 11.1858 28.9718 7.85665 28.9718 3.74993V2.27743C28.9718 1.2796 28.1663 0.474121 27.1684 0.474121Z" fill="var(--fill-0, white)"/>
</g>
</svg>
