<svg preserveAspectRatio="none" width="100%" height="100%" overflow="visible" style="display: block;" viewBox="0 0 35 35.0001" fill="none" xmlns="http://www.w3.org/2000/svg">
<g id="Group">
<path id="Vector" d="M33.9664 12.4687C33.9659 12.4682 33.9652 12.4681 33.9646 12.4683L31.6656 13.4179C29.3882 14.3665 28.9711 17.4143 30.9098 18.94L31.6656 19.5348L34.3828 21.6675C34.7828 22.0003 35 22.4846 35 22.9674V12.8497C35 12.459 34.606 12.1914 34.2427 12.3354L34.2269 12.3416C34.209 12.3487 34.1918 12.3574 34.1751 12.3671C34.1037 12.4088 34.0421 12.4383 33.9682 12.4691C33.9676 12.4693 33.9669 12.4692 33.9664 12.4687Z" fill="var(--fill-0, white)"/>
<path id="Vector_2" d="M29.9996 0.000172518H4.99993C2.24997 0.000172518 1.66918e-06 2.25006 1.66918e-06 4.99993C1.66918e-06 7.07831 1.25042 8.95259 3.16946 9.75069L12.3826 13.5823L16.8654 15.4322C17.2653 15.5994 17.7325 15.5994 18.1325 15.4322L19.6325 14.815L22.6153 13.5823L29.9996 10.509L31.8279 9.74946C33.7471 8.95216 34.9979 7.07816 34.9979 4.99993C34.9979 2.25006 32.7479 0.000172518 29.998 0.000172518H29.9996Z" fill="var(--fill-0, white)"/>
<path id="Vector_3" d="M31.6667 23.7671C31.6667 23.7666 31.6665 23.7661 31.6661 23.7658L25.634 19.0337C24.0495 17.7791 21.9094 17.4821 20.0432 18.2578L19.4169 18.5181C18.7997 18.7681 18.1497 18.9009 17.4997 18.9009C16.8498 18.9009 16.1998 18.7681 15.5826 18.5181L14.7716 18.1811C13.0184 17.4523 11.0082 17.7276 9.51546 18.9009L3.33275 23.7679L2.69996 24.2679C0.994763 25.6148 0 27.6682 0 29.8412V30.0004C0 32.7502 2.41716 35.0001 5.39992 35.0001H29.5996C32.5823 35.0001 34.9995 32.7502 34.9995 30.0004C34.9995 27.7169 33.9504 25.5601 32.154 24.1504L31.8636 23.9226L31.6674 23.7684C31.667 23.7681 31.6667 23.7676 31.6667 23.7671ZM26.9168 28.4988H22.8497C21.9325 28.4988 21.1825 27.7661 21.1825 26.8317C21.1825 25.9146 21.9325 25.1646 22.8497 25.1646H26.9168C27.834 25.1646 28.584 25.9146 28.584 26.8317C28.584 27.7645 27.834 28.4988 26.9168 28.4988Z" fill="var(--fill-0, white)"/>
<path id="Vector_4" d="M8.41661 15.5314C8.41654 15.5314 8.41647 15.5314 8.41641 15.5314L3.33378 13.4143L0.933819 12.4144C0.488928 12.2318 0.0010331 12.559 0.0010331 13.0399V22.9638C0.0010331 22.4811 0.218218 21.9967 0.618224 21.6639L3.33538 19.5312L8.41693 15.5323C8.41731 15.532 8.4171 15.5314 8.41661 15.5314Z" fill="var(--fill-0, white)"/>
</g>
</svg>
