<svg preserveAspectRatio="none" width="100%" height="100%" overflow="visible" style="display: block;" viewBox="0 0 44 44" fill="none" xmlns="http://www.w3.org/2000/svg">
<g id="Icon">
<g id="Vector">
<path d="M36 2H8C4.68629 2 2 4.68629 2 8V36C2 39.3137 4.68629 42 8 42H36C39.3137 42 42 39.3137 42 36V8C42 4.68629 39.3137 2 36 2Z" fill="var(--fill-0, #1C1C1C)"/>
<path d="M8 2.5H36C39.0376 2.5 41.5 4.96243 41.5 8V36C41.5 39.0376 39.0376 41.5 36 41.5H8C4.96243 41.5 2.5 39.0376 2.5 36V8C2.5 4.96243 4.96243 2.5 8 2.5Z" stroke="var(--stroke-0, white)" stroke-opacity="0.4"/>
</g>
<path id="Vector_2" opacity="0.7" d="M34 8H10C8.89543 8 8 8.89543 8 10V12C8 13.1046 8.89543 14 10 14H34C35.1046 14 36 13.1046 36 12V10C36 8.89543 35.1046 8 34 8Z" fill="var(--fill-0, white)"/>
<path id="Vector_3" opacity="0.5" d="M18 18H10C8.89543 18 8 18.8954 8 20V32C8 33.1046 8.89543 34 10 34H18C19.1046 34 20 33.1046 20 32V20C20 18.8954 19.1046 18 18 18Z" fill="var(--fill-0, white)"/>
<path id="Vector_4" opacity="0.5" d="M34 18H26C24.8954 18 24 18.8954 24 20V23C24 24.1046 24.8954 25 26 25H34C35.1046 25 36 24.1046 36 23V20C36 18.8954 35.1046 18 34 18Z" fill="var(--fill-0, white)"/>
<path id="Vector_5" opacity="0.3" d="M34 27H26C24.8954 27 24 27.8954 24 29V32C24 33.1046 24.8954 34 26 34H34C35.1046 34 36 33.1046 36 32V29C36 27.8954 35.1046 27 34 27Z" fill="var(--fill-0, white)"/>
</g>
</svg>
