<svg preserveAspectRatio="none" width="100%" height="100%" overflow="visible" style="display: block;" viewBox="0 0 44 44" fill="none" xmlns="http://www.w3.org/2000/svg">
<g id="Icon">
<path id="Vector" opacity="0.8" d="M38 4H6C3.79086 4 2 5.79086 2 8V14C2 16.2091 3.79086 18 6 18H38C40.2091 18 42 16.2091 42 14V8C42 5.79086 40.2091 4 38 4Z" fill="var(--fill-0, white)"/>
<path id="Vector_2" opacity="0.5" d="M17 22H6C3.79086 22 2 23.7909 2 26V36C2 38.2091 3.79086 40 6 40H17C19.2091 40 21 38.2091 21 36V26C21 23.7909 19.2091 22 17 22Z" fill="var(--fill-0, white)"/>
<path id="Vector_3" opacity="0.5" d="M38 22H29C26.7909 22 25 23.7909 25 26V36C25 38.2091 26.7909 40 29 40H38C40.2091 40 42 38.2091 42 36V26C42 23.7909 40.2091 22 38 22Z" fill="var(--fill-0, white)"/>
</g>
</svg>
